<mxfile host="app.diagrams.net" modified="2024-06-14T05:45:33.081Z" agent="Mozilla/5.0 (Macintosh; Intel Mac OS X 10_15_7) AppleWebKit/537.36 (KHTML, like Gecko) Chrome/125.0.0.0 Safari/537.36" version="24.2.5" etag="Te7ExsC48dnFV8RGAj03" type="github">
  <diagram name="Page-1" id="vxG8f9Gp5P6eJFu4H-2G">
    <mxGraphModel>
      <root>
        <mxCell id="0" />
        <mxCell id="1" parent="0" />
      </root>
    </mxGraphModel>
  </diagram>
</mxfile>
